<svg width="12" height="12" viewBox="0 0 12 12" fill="none" xmlns="http://www.w3.org/2000/svg">
<path d="M6.00002 5.8587L5.64646 5.50515L3.07072 2.9294C3.0707 2.92939 3.07068 2.92937 3.07066 2.92935C3.05192 2.91064 3.02651 2.90012 3.00002 2.90012C2.97353 2.90012 2.94812 2.91064 2.92937 2.92935C2.92935 2.92937 2.92934 2.92939 2.92932 2.9294M6.00002 5.8587L2.57582 3.4242C2.46334 3.31168 2.40015 3.1591 2.40015 3C2.40015 2.8409 2.46334 2.68831 2.57582 2.5758L2.92932 2.9294M6.00002 5.8587L6.35357 5.50515L8.92937 2.92935L8.92942 2.9294L8.93546 2.92315C8.94469 2.9136 8.95572 2.90598 8.96792 2.90074L8.77058 2.44134L8.96792 2.90074C8.98012 2.8955 8.99324 2.89274 9.00652 2.89263C9.0198 2.89251 9.03297 2.89504 9.04526 2.90007C9.05755 2.9051 9.06871 2.91252 9.0781 2.92191C9.08749 2.9313 9.09492 2.94247 9.09994 2.95476C9.10497 2.96705 9.1075 2.98022 9.10739 2.99349C9.10727 3.00677 9.10451 3.01989 9.09927 3.0321C9.09403 3.04429 9.08641 3.05533 9.07686 3.06455L9.07681 3.0645L9.07066 3.07064L6.49486 5.64644L6.14131 6L6.49486 6.35355L9.0663 8.92499C9.08343 8.94364 9.09286 8.96812 9.09264 8.99349C9.09241 9.01971 9.0819 9.04479 9.06335 9.06334C9.04482 9.08188 9.01973 9.09239 8.99351 9.09262C8.96814 9.09284 8.94366 9.08341 8.92501 9.06628L6.35357 6.49484L6.00002 6.14129L5.64646 6.49484L3.07503 9.06628C3.05638 9.0834 3.0319 9.09284 3.00652 9.09262C2.9803 9.09239 2.95522 9.08188 2.93668 9.06333C2.91814 9.04479 2.90762 9.01971 2.90739 8.99349C2.90717 8.96812 2.91661 8.94364 2.93374 8.92499L5.50517 6.35355L5.85873 6L5.50517 5.64644L2.92943 3.0707L2.57589 3.42412L2.92937 3.07064M6.00002 5.8587L2.92937 3.07064M2.92932 2.9294C2.91064 2.94815 2.90015 2.97353 2.90015 3C2.90015 3.02649 2.91066 3.0519 2.92937 3.07064M2.92932 2.9294L2.92937 3.07064" fill="#111928" stroke="#111928"/>
</svg>
